<svg version="1.1" viewBox="0.0 0.0 1440.0 1080.0" fill="none" stroke="none" stroke-linecap="square"
    stroke-miterlimit="10" xmlns:xlink="http://www.w3.org/1999/xlink" xmlns="http://www.w3.org/2000/svg">
    <clipPath id="gd469ec1406_0_0.0">
        <path d="m0 0l1440.0 0l0 1080.0l-1440.0 0l0 -1080.0z" clip-rule="nonzero" />
    </clipPath>
    <g clip-path="url(#gd469ec1406_0_0.0)">
        <path fill="none" d="m0 0l1440.0 0l0 1080.0l-1440.0 0z" fill-rule="evenodd" />
        <path fill="#151c35"
            d="m207.87346 540.0011l0 0c0 -283.68588 229.28706 -513.65875 512.12695 -513.65875l0 0c135.82452 0 266.08606 54.11747 362.12848 150.44716c96.04248 96.3297 149.99854 226.98082 149.99854 363.2116l0 0c0 283.6859 -229.28705 513.6588 -512.127 513.6588l0 0c-282.8399 0 -512.12695 -229.9729 -512.12695 -513.6588z"
            fill-rule="evenodd" />
        <path stroke="#b4a7d6" stroke-width="24.0" stroke-linejoin="round" stroke-linecap="butt"
            d="m207.87346 540.0011l0 0c0 -283.68588 229.28706 -513.65875 512.12695 -513.65875l0 0c135.82452 0 266.08606 54.11747 362.12848 150.44716c96.04248 96.3297 149.99854 226.98082 149.99854 363.2116l0 0c0 283.6859 -229.28705 513.6588 -512.127 513.6588l0 0c-282.8399 0 -512.12695 -229.9729 -512.12695 -513.6588z"
            fill-rule="evenodd" />
        <path fill="#000000" fill-opacity="0.0"
            d="m293.22797 539.9839l0 0c0 -236.39566 191.07004 -428.03223 426.7669 -428.03223l0 0c113.18561 0 221.73547 45.096123 301.76978 125.367744c80.0343 80.27162 124.99719 189.1433 124.99719 302.6645l0 0c0 236.39569 -191.07013 428.0323 -426.76697 428.0323l0 0c-235.69687 0 -426.7669 -191.6366 -426.7669 -428.0323z"
            fill-rule="evenodd" />
        <path stroke="#ffffff" stroke-width="24.0" stroke-linejoin="round" stroke-linecap="butt"
            d="m293.22797 539.9839l0 0c0 -236.39566 191.07004 -428.03223 426.7669 -428.03223l0 0c113.18561 0 221.73547 45.096123 301.76978 125.367744c80.0343 80.27162 124.99719 189.1433 124.99719 302.6645l0 0c0 236.39569 -191.07013 428.0323 -426.76697 428.0323l0 0c-235.69687 0 -426.7669 -191.6366 -426.7669 -428.0323z"
            fill-rule="evenodd" />
        <path fill="#eeeeee"
            d="m358.6664 540.00867l133.80783 -133.80786l0 66.90393l53.649597 0l0 -107.504974l106.988464 0l0 -54.20642l-66.90387 0l133.8078 -133.80785l133.80786 133.80785l-66.90393 0l0 54.20642l106.988464 0l0 107.504974l53.649597 0l0 -66.90393l133.80786 133.80786l-133.80786 133.80786l0 -66.90393l-53.649597 0l0 107.504944l-106.988464 0l0 54.20642l66.90393 0l-133.80786 133.80786l-133.8078 -133.80786l66.90387 0l0 -54.20642l-106.988464 0l0 -107.504944l-53.649597 0l0 66.90393z"
            fill-rule="evenodd" />
        <path fill="#ff00ff"
            d="m876.5153 540.00757l-63.15387 22.525085l0 -45.050232zm-45.84845 -110.990845l-28.767456 60.721527l-31.761353 -31.854889zm-110.650635 -45.96884l22.459045 63.339752l-44.91803 0zm-110.6651 45.96884l60.543335 28.866638l-31.761414 31.854889zm-45.833923 110.990845l63.15387 -22.525146l0 45.050232zm45.833923 110.97626l28.781921 -60.70697l31.761414 31.854858zm110.6651 45.9834l-22.458984 -63.339783l44.91803 0zm110.650635 -45.9834l-60.52881 -28.852112l31.761353 -31.854858zm-188.90015 -110.97626l0 0c0 -43.34323 35.03351 -78.47986 78.24951 -78.47986c43.216064 0 78.24957 35.136627 78.24957 78.47986c0 43.3432 -35.03351 78.4798 -78.24957 78.4798c-43.216003 0 -78.24951 -35.136597 -78.24951 -78.4798z"
            fill-rule="evenodd" />
        <path fill="#eeeeee"
            d="m677.3232 540.0069l0 0c0 -23.64508 19.101013 -42.813232 42.66333 -42.813232l0 0c11.315002 0 22.166565 4.5106506 30.167542 12.539703c8.000916 8.029022 12.495789 18.918793 12.495789 30.27353l0 0c0 23.645142 -19.101013 42.813293 -42.66333 42.813293l0 0c-23.562317 0 -42.66333 -19.168152 -42.66333 -42.813293z"
            fill-rule="evenodd" />
        <path fill="#ff00ff"
            d="m935.00684 540.0069l0 0c0 -23.64508 19.101013 -42.813232 42.66333 -42.813232l0 0c11.315002 0 22.166565 4.5106506 30.167542 12.539703c8.000916 8.029022 12.495789 18.918793 12.495789 30.27353l0 0c0 23.645142 -19.101013 42.813293 -42.66333 42.813293l0 0c-23.562317 0 -42.66333 -19.168152 -42.66333 -42.813293z"
            fill-rule="evenodd" />
        <path fill="#ff00ff"
            d="m419.63956 540.0069l0 0c0 -23.64508 19.101013 -42.813232 42.6633 -42.813232l0 0c11.315002 0 22.166595 4.5106506 30.167511 12.539703c8.000916 8.029022 12.495789 18.918793 12.495789 30.27353l0 0c0 23.645142 -19.101013 42.813293 -42.6633 42.813293l0 0c-23.562286 0 -42.6633 -19.168152 -42.6633 -42.813293z"
            fill-rule="evenodd" />
        <path fill="#ff00ff"
            d="m677.3232 804.80133l0 0c0 -23.64508 19.101013 -42.813232 42.66333 -42.813232l0 0c11.315002 0 22.166565 4.51062 30.167542 12.539673c8.000916 8.029053 12.495789 18.918762 12.495789 30.27356l0 0c0 23.645142 -19.101013 42.813293 -42.66333 42.813293l0 0c-23.562317 0 -42.66333 -19.168152 -42.66333 -42.813293z"
            fill-rule="evenodd" />
        <path fill="#ff00ff"
            d="m677.3232 285.75513l0 0c0 -23.645111 19.101013 -42.813248 42.66333 -42.813248l0 0c11.315002 0 22.166565 4.510666 30.167542 12.539703c8.000916 8.029037 12.495789 18.918777 12.495789 30.273544l0 0c0 23.645111 -19.101013 42.813263 -42.66333 42.813263l0 0c-23.562317 0 -42.66333 -19.168152 -42.66333 -42.813263z"
            fill-rule="evenodd" />
        <path fill="#eeeeee"
            d="m905.8836 311.755l0 0c0 -23.645111 19.101013 -42.813263 42.66327 -42.813263l0 0c11.315002 0 22.166626 4.510681 30.167542 12.539703c8.000916 8.029053 12.495789 18.918793 12.495789 30.27356l0 0c0 23.645111 -19.101013 42.813263 -42.66333 42.813263l0 0c-23.562256 0 -42.66327 -19.168152 -42.66327 -42.813263z"
            fill-rule="evenodd" />
        <path fill="#eeeeee"
            d="m905.8836 768.25885l0 0c0 -23.645142 19.101013 -42.813293 42.66327 -42.813293l0 0c11.315002 0 22.166626 4.510681 30.167542 12.539734c8.000916 8.029053 12.495789 18.918762 12.495789 30.27356l0 0c0 23.64508 -19.101013 42.813232 -42.66333 42.813232l0 0c-23.562256 0 -42.66327 -19.168152 -42.66327 -42.813232z"
            fill-rule="evenodd" />
        <path fill="#eeeeee"
            d="m448.76282 768.25885l0 0c0 -23.645142 19.101013 -42.813293 42.66333 -42.813293l0 0c11.315002 0 22.166565 4.510681 30.16748 12.539734c8.000916 8.029053 12.495789 18.918762 12.495789 30.27356l0 0c0 23.64508 -19.101013 42.813232 -42.66327 42.813232l0 0c-23.562317 0 -42.66333 -19.168152 -42.66333 -42.813232z"
            fill-rule="evenodd" />
        <path fill="#eeeeee"
            d="m448.76282 311.755l0 0c0 -23.645111 19.101013 -42.813263 42.66333 -42.813263l0 0c11.315002 0 22.166565 4.510681 30.16748 12.539703c8.000916 8.029053 12.495789 18.918793 12.495789 30.27356l0 0c0 23.645111 -19.101013 42.813263 -42.66327 42.813263l0 0c-23.562317 0 -42.66333 -19.168152 -42.66333 -42.813263z"
            fill-rule="evenodd" />
    </g>
</svg>
